# xmcd
#
# Track frame offsets: 
#        150
#        20793
#        40502
#        52115
#        71376
#        88918
#        113442
#        130928
#        144784
#        157875
#
# Disc length: 2607 seconds
#
# Revision: 3
# Processed by: cddbd v1.5.2PL0 Copyright (c) Steve Scherf et al.
# Submitted via: ExactAudioCopy v1.0b3
#
DISCID=7b0a2d0a
DTITLE=Gabriel Dupont - Oeuvres complètes pour piano seul  (Émile Naou
DTITLE=moff, piano)  [CD 2-2]
DYEAR=2004
DGENRE=Classical
TTITLE0=La Maison dans les Dunes  [1910] - Dans les dunes par un clair
TTITLE0=matin
TTITLE1=La Maison dans les Dunes - Voiles sur l'eau
TTITLE2=La Maison dans les Dunes - La maison du souvenir
TTITLE3=La Maison dans les Dunes - Mon frère le Vent et ma soeur la Pl
TTITLE3=uie
TTITLE4=La Maison dans les Dunes - Mélodie du bonheur
TTITLE5=La Maison dans les Dunes - Le soleil se joue des vagues
TTITLE6=La Maison dans les Dunes - Le soir dans les pins
TTITLE7=La Maison dans les Dunes - Le bruissement de la mer la nuit
TTITLE8=La Maison dans les Dunes - Clair d'étoiles
TTITLE9=La Maison dans les Dunes - Houles
EXTD=YEAR: 2004
EXTT0=
EXTT1=
EXTT2=
EXTT3=
EXTT4=
EXTT5=
EXTT6=
EXTT7=
EXTT8=
EXTT9=
PLAYORDER=
